<?xml version="1.0" standalone="no"?>
<!DOCTYPE svg PUBLIC "-//W3C//DTD SVG 20010904//EN"
 "http://www.w3.org/TR/2001/REC-SVG-20010904/DTD/svg10.dtd">
<svg version="1.0" xmlns="http://www.w3.org/2000/svg"
 width="95.000000pt" height="95.000000pt" viewBox="0 0 95.000000 95.000000"
 preserveAspectRatio="xMidYMid meet">
<metadata>
Created by potrace 1.11, written by Peter Selinger 2001-2013
</metadata>
<g transform="translate(0.000000,95.000000) scale(0.100000,-0.100000)"
fill="#000000" stroke="none">
<path d="M461 844 c-7 -20 -24 -61 -38 -91 l-24 -55 -68 66 c-38 36 -72 66
-75 66 -4 0 -4 -45 0 -99 l7 -99 -88 24 c-48 14 -91 24 -97 22 -5 -2 14 -39
42 -82 56 -85 55 -89 -9 -101 -72 -13 -111 -26 -111 -38 0 -7 32 -29 70 -50
39 -21 70 -42 70 -47 0 -5 -29 -33 -64 -62 -36 -29 -65 -56 -65 -60 -1 -5 41
-8 92 -8 l92 0 39 -41 c60 -64 134 -94 231 -93 97 0 158 26 219 91 l41 43 84
0 85 0 -52 53 c-29 29 -52 55 -52 58 0 3 36 23 80 44 44 21 80 42 80 47 0 4
-33 17 -72 28 -121 34 -116 25 -52 113 31 43 55 80 53 82 -2 2 -45 -5 -94 -15
-50 -11 -93 -19 -96 -20 -3 0 0 41 8 92 7 50 12 96 11 100 -2 5 -36 -19 -76
-53 -41 -34 -77 -57 -81 -53 -5 5 -21 46 -36 92 -16 45 -31 82 -35 82 -3 0
-12 -16 -19 -36z"/>
</g>
</svg>
